<svg version="1.2" baseProfile="tiny-ps" xmlns="http://www.w3.org/2000/svg" viewBox="0 0 256 256" width="256" height="256">
	<title>New Project</title>
	<style>
		tspan { white-space:pre }
		.shp0 { fill: #5c2626 } 
	</style>
	<path id="Shape 1" class="shp0" d="M61.5 201.62C59.29 201.62 57.38 200.83 55.76 199.24C54.15 197.65 53.34 195.77 53.34 193.59C53.34 191.42 54.15 189.53 55.76 187.94C57.38 186.35 59.29 185.56 61.5 185.56C63.71 185.56 65.62 186.35 67.24 187.94C68.85 189.53 69.66 191.42 69.66 193.59C69.66 195.77 68.85 197.65 67.24 199.24C65.62 200.83 63.71 201.62 61.5 201.62ZM129.66 126.49C123.24 120.18 118.37 112.92 115.06 104.71L28.22 190.2C24.99 193.38 23.38 197.19 23.38 201.62C23.38 206.14 24.99 209.91 28.22 212.92L41.74 226.48C45.05 229.58 48.92 231.13 53.34 231.13C57.85 231.13 61.67 229.58 64.82 226.48L151.78 140.87C143.45 137.6 136.08 132.81 129.66 126.49ZM231.54 83.12C230.82 82.29 229.82 81.87 228.54 81.87C227.78 81.87 224.78 83.35 219.55 86.32C214.33 89.29 208.57 92.68 202.28 96.49C195.98 100.3 192.63 102.33 192.2 102.58L167.59 89.15L167.59 61.03L204.95 39.81C206.31 38.89 206.99 37.72 206.99 36.3C206.99 34.88 206.31 33.71 204.95 32.78C201.21 30.27 196.64 28.33 191.25 26.95C185.85 25.57 180.68 24.88 175.75 24.88C160.03 24.88 146.57 30.38 135.4 41.38C124.22 52.39 118.63 65.63 118.63 81.11C118.63 96.6 124.22 109.84 135.4 120.84C146.57 131.85 160.03 137.35 175.75 137.35C187.74 137.35 198.73 133.86 208.72 126.87C218.7 119.88 225.7 110.78 229.69 99.57C231.65 93.96 232.63 89.52 232.63 86.26C232.63 85.01 232.26 83.96 231.54 83.12Z" />
</svg>